<?xml version="1.0" encoding="utf-8"?>
<!-- Generator: Adobe Illustrator 16.0.0, SVG Export Plug-In . SVG Version: 6.00 Build 0)  -->
<!DOCTYPE svg PUBLIC "-//W3C//DTD SVG 1.1//EN" "http://www.w3.org/Graphics/SVG/1.1/DTD/svg11.dtd">
<svg version="1.1" id="Layer_1" xmlns="http://www.w3.org/2000/svg" xmlns:xlink="http://www.w3.org/1999/xlink" x="0px" y="0px"
	 width="445.16px" height="476.441px" viewBox="2875.547 -3451.798 445.16 476.441"
	 enable-background="new 2875.547 -3451.798 445.16 476.441" xml:space="preserve">
<g>
	<g>
		<path fill-rule="evenodd" clip-rule="evenodd" fill="#999999" d="M2909.75-3101.202c7.639,0.369,15.305,0.166,23.447,0.166
			c-37.846-63.49-44.291-128.87-12.197-195.146c32.139-66.366,87.135-102.432,160.891-112.225c0,4.566-0.167,8.346,0.035,12.105
			c0.42,7.823,4.804,10.049,11.328,5.597c10.182-6.946,20.271-14.03,30.271-21.236c7.149-5.153,6.992-11.29-0.274-16.552
			c-5.935-4.298-11.979-8.446-17.978-12.657c-4.227-2.966-8.355-6.088-12.713-8.847c-5.86-3.71-9.986-1.576-10.582,5.38
			c-0.254,2.979-0.311,6.013-0.066,8.989c0.307,3.734-1.043,4.869-4.852,5.594c-16.146,3.071-32.742,5.097-48.17,10.416
			c-91.594,31.579-149.643,112.837-150.486,209.58c-0.326,37.398,8.951,72.49,26.813,105.302
			C2906.08-3103.151,2908.158-3101.279,2909.75-3101.202z"/>
		<path fill-rule="evenodd" clip-rule="evenodd" fill="#999999" d="M3249.838-3371.811c-2.357,2.682-4.684,5.502-7.2,8.142
			c-2.58,2.706-5.347,5.235-7.759,7.578c56.086,57.634,77.315,124.872,54.438,201.986c-22.84,76.988-77.261,121.887-154.887,139.839
			c0,7.22,0,14.482,0,21.775c61.161-7.063,142.627-54.245,174.159-145.583C3339.146-3226.581,3309.113-3318.755,3249.838-3371.811z"
			/>
		<path fill-rule="evenodd" clip-rule="evenodd" fill="#999999" d="M3053.131-3111.941c-1.316,4.263-0.62,12.184,2.157,14.143
			c10.977,7.75,27.695,1.081,31.661-11.498c17.528-55.62,35.381-111.139,52.215-166.966c3.146-10.433,2.186-22.108,3.16-33.738
			c-43.947,0-85.599,0-127.65,0c-1.133,12.876-2.167,24.933-3.265,36.983c-1.405,15.436,0.616,17.314,15.524,17.449
			c9.51,0.086,13.339-4.276,13.617-13.165c0.111-3.581,0.66-7.149,1.064-11.27c21.777,0,42.956,0,66.213,0
			c-8.254,25.232-16.201,49.547-24.159,73.862C3073.4-3174.769,3062.887-3143.472,3053.131-3111.941z"/>
		<path fill-rule="evenodd" clip-rule="evenodd" fill="#999999" d="M3090.937-3064.262c-16.082-1.02-16.066-1.014-22.071,12.75
			c-3.665,8.399-7.382,16.774-11.626,26.413c-5.634-12.557-10.511-23.672-15.651-34.662c-0.882-1.883-2.83-4.54-4.396-4.616
			c-9.236-0.457-18.514-0.402-27.765-0.134c-1.568,0.046-3.082,1.97-4.77,3.127c-0.53-0.194-1.292-0.418-2.005-0.747
			c-16.207-7.465-32.354-4.073-42.895,9.021c-9.939,12.347-10.27,31.04-0.77,43.599c10.266,13.569,25.762,17.397,42.58,10.565
			c1.376-0.558,3.013-1.403,4.291-1.104c5.057,1.175,10.018,2.752,16.426,4.584c0-23.622,0-44.614,0-65.605
			c9.652,17.646,17.766,35.586,25.449,53.706c0.826,1.947-0.488,5.107-1.438,7.447c-3.226,7.918-6.732,15.72-10.276,23.897
			c16.186,1.515,16.176,1.511,22.065-11.975c9.949-22.781,19.923-45.553,29.848-68.346
			C3089.03-3058.856,3089.889-3061.479,3090.937-3064.262z M2987.653-3010.713c-10.676,0.163-19.425-8.717-19.539-19.834
			c-0.115-11.359,8.115-19.899,19.189-19.907c11.214-0.008,19.368,8.23,19.447,19.646
			C3006.829-3019.406,2998.731-3010.884,2987.653-3010.713z"/>
		<path fill-rule="evenodd" clip-rule="evenodd" fill="#999999" d="M2930.144-3060.777c-2.258-0.764-3.241-1.007-4.152-1.414
			c-16.41-7.324-32.348-3.915-42.83,9.182c-9.912,12.381-10.174,30.688-0.625,43.556c10.025,13.513,25.695,17.366,42.512,10.505
			c1.379-0.563,3.021-1.395,4.307-1.095c5.048,1.174,9.999,2.749,15.767,4.398c0-32.023,0-61.525,0-91.245
			c-5.181,0-9.799,0-14.978,0C2930.144-3078.231,2930.144-3070.093,2930.144-3060.777z M2911.124-3010.683
			c-10.629,0.122-19.478-8.865-19.568-19.876c-0.093-11.285,8.225-19.881,19.251-19.896c11.061-0.018,19.368,8.362,19.509,19.68
			C2930.455-3019.571,2922.088-3010.811,2911.124-3010.683z"/>
		<path fill-rule="evenodd" clip-rule="evenodd" fill="#999999" d="M3111.87-3049.625c3.083,1.023,5.616,3.706,8.275,5.603
			c3.684-3.271,7.209-6.403,11.486-10.2c-4.756-3.496-8.287-6.725-12.361-8.965c-10.342-5.686-22.345-2.864-28.057,6.15
			c-6.032,9.525-3.137,21.245,7.205,28.283c3.482,2.37,7.697,3.786,10.837,6.498c1.986,1.715,2.603,5.017,3.834,7.606
			c-3.209,0.956-6.749,3.232-9.544,2.532c-3.465-0.869-6.313-4.204-9.775-6.725c-3.188,3.645-6.24,7.132-9.346,10.683
			c1.632,2.041,2.664,3.589,3.944,4.891c7.425,7.55,16.573,9.404,26.308,6.449c8.572-2.6,13.545-9.105,14.44-18.114
			c1.028-10.343-4.709-16.851-13.101-21.646c-2.979-1.703-6.232-3.145-8.729-5.402c-1.645-1.488-2.163-4.223-3.186-6.398
			C3106.72-3048.875,3109.663-3050.36,3111.87-3049.625z"/>
		<path fill-rule="evenodd" clip-rule="evenodd" fill="#999999" d="M3105.219-3382.729c-0.072-3.888-2.015-5.694-5.98-5.616
			c-3.793,0.074-5.473,2.002-5.507,5.575c-0.05,5.326-0.03,10.653,0.013,15.98c0.027,3.569,1.684,5.545,5.455,5.646
			c3.945,0.105,5.922-1.729,6.016-5.606c0.063-2.661,0.012-5.326,0.012-7.989
			C3105.228-3377.401,3105.268-3380.065,3105.219-3382.729z"/>
		<path fill-rule="evenodd" clip-rule="evenodd" fill="#999999" d="M3272.664-3203.9c3.976,0.087,5.834-1.885,5.746-5.78
			c-0.082-3.615-1.863-5.515-5.584-5.492c-5.32,0.031-10.643,0.063-15.962-0.012c-4.022-0.056-5.712,1.913-5.671,5.82
			c0.04,3.723,1.773,5.517,5.508,5.443c2.66-0.052,5.32-0.01,7.981-0.01c0,0.007,0,0.013,0,0.02
			C3267.343-3203.911,3270.004-3203.957,3272.664-3203.9z"/>
		<path fill-rule="evenodd" clip-rule="evenodd" fill="#999999" d="M3225.611-3329.067c2.287,0.145,4.82-3.599,8.307-6.521
			c-3.602-2.687-6.242-6.151-8.904-6.168c-2.119-0.014-6.105,4.349-5.914,6.465
			C3219.318-3332.886,3223.158-3329.223,3225.611-3329.067z"/>
		<path fill-rule="evenodd" clip-rule="evenodd" fill="#999999" d="M2973.834-3341.8c-2.805,0.931-5.939,4.056-6.658,6.861
			c-0.416,1.619,3.615,4.38,6.525,7.601c2.639-3.46,5.907-5.958,6.193-8.76C2980.079-3337.915,2975.218-3342.258,2973.834-3341.8z"
			/>
		<path fill-rule="evenodd" clip-rule="evenodd" fill="#999999" d="M3219.105-3083.89c-0.184,2.134,3.755,6.484,5.873,6.482
			c2.664-0.002,5.326-3.438,8.98-6.121c-3.484-2.89-5.995-6.573-8.306-6.451C3223.209-3089.851,3219.307-3086.241,3219.105-3083.89z
			"/>
	</g>
</g>
</svg>
