<?xml version="1.0" encoding="utf-8"?>
<!-- Generator: Adobe Illustrator 16.0.0, SVG Export Plug-In . SVG Version: 6.00 Build 0)  -->
<!DOCTYPE svg PUBLIC "-//W3C//DTD SVG 1.1//EN" "http://www.w3.org/Graphics/SVG/1.1/DTD/svg11.dtd">
<svg version="1.1" id="Layer_1" xmlns="http://www.w3.org/2000/svg" xmlns:xlink="http://www.w3.org/1999/xlink" x="0px" y="0px"
	 width="96px" height="96px" viewBox="1423.5 -1297 96 96" enable-background="new 1423.5 -1297 96 96" xml:space="preserve">
<circle fill="#F98905" cx="1471.5" cy="-1249" r="48"/>
<path fill-rule="evenodd" clip-rule="evenodd" fill="#FFFFFF" d="M1477.755-1216.513c-2.055,0-4.109,0-6.164,0
	c0-3.323,0-6.645,0-10.068c-1.571,0-3.088-0.004-4.604,0.002c-0.366,0.001-0.288,0.294-0.288,0.509
	c-0.001,3.186,0.002,6.371,0.004,9.557c-2.054,0-4.109,0-6.164,0c0-3.39,0-6.781,0-10.247c-4.148,0-8.211,0-12.257,0
	c-0.026-0.108-0.047-0.144-0.041-0.175c0.381-2.268,0.771-4.536,1.139-6.805c0.055-0.343,0.26-0.316,0.493-0.316
	c1.257,0.001,2.515,0.004,3.771,0c1.729-0.006,2.556-0.845,2.556-2.588c0-8.818,0-17.636,0-26.455c0-1.911-1.169-3.169-3.086-3.276
	c-1.008-0.056-2.018-0.052-3.025-0.066c-0.613-0.009-1.226-0.002-1.842-0.002c0-2.201,0-4.333,0-6.539c4.112,0,8.189,0,12.292,0
	c0-3.402,0-6.729,0-10.058c2.055,0,4.11,0,6.164,0c-0.004,3.135-0.002,6.269-0.017,9.404c-0.001,0.371,0.113,0.491,0.486,0.478
	c1.062-0.037,2.124-0.041,3.188-0.055c0.398-0.005,0.797-0.001,1.159-0.001c0.044-0.143,0.063-0.176,0.063-0.209
	c0.004-3.206,0.007-6.411,0.009-9.617c2.055,0,4.109,0,6.164,0c-0.009,0.212-0.024,0.423-0.024,0.635
	c-0.002,2.833-0.002,5.665-0.002,8.498c0,0.975,0,0.968,1,1.077c2.736,0.299,5.422,0.79,7.944,1.964
	c2.383,1.109,4.241,2.721,5.216,5.227c0.699,1.802,0.873,3.676,0.734,5.583c-0.236,3.249-1.747,5.727-4.563,7.39
	c-0.19,0.112-0.384,0.22-0.645,0.369c0.172,0.081,0.245,0.122,0.323,0.151c1.057,0.397,2.16,0.703,3.162,1.207
	c2.46,1.239,4.218,3.117,4.914,5.859c0.696,2.745,0.54,5.479-0.144,8.194c-0.592,2.35-1.714,4.414-3.577,6.008
	c-2.114,1.809-4.653,2.768-7.326,3.29c-2.129,0.416-4.308,0.582-6.47,0.816c-0.465,0.05-0.597,0.201-0.58,0.648
	c0.032,0.813,0.008,1.629,0.01,2.443C1477.736-1221.292,1477.746-1218.902,1477.755-1216.513z M1466.821-1234.043
	c1.902,0,3.707,0.043,5.508-0.011c2.447-0.072,4.874-0.341,7.193-1.187c1.46-0.534,2.833-1.242,3.671-2.636
	c1.627-2.71,0.777-6.145-1.955-7.751c-1.989-1.169-4.201-1.688-6.483-1.792c-2.418-0.11-4.844-0.078-7.264-0.141
	c-0.536-0.014-0.686,0.137-0.683,0.679c0.023,4.069,0.013,8.14,0.013,12.21C1466.821-1234.483,1466.821-1234.293,1466.821-1234.043z
	 M1466.821-1259.876c0,1.895,0.003,3.789-0.003,5.684c0,0.293,0.012,0.5,0.411,0.506c3.101,0.052,6.191,0.047,9.224-0.763
	c1.576-0.421,2.946-1.192,3.897-2.497c1.46-2.001,0.963-5.303-0.956-6.904c-1.561-1.301-3.461-1.796-5.41-1.951
	c-2.219-0.176-4.455-0.131-6.682-0.2c-0.431-0.014-0.488,0.191-0.486,0.548C1466.826-1263.594,1466.821-1261.735,1466.821-1259.876z
	"/>
</svg>
