<?xml version="1.0" encoding="utf-8"?>
<!-- Generator: Adobe Illustrator 16.0.0, SVG Export Plug-In . SVG Version: 6.00 Build 0)  -->
<!DOCTYPE svg PUBLIC "-//W3C//DTD SVG 1.1//EN" "http://www.w3.org/Graphics/SVG/1.1/DTD/svg11.dtd">
<svg version="1.1" id="Layer_1" xmlns="http://www.w3.org/2000/svg" xmlns:xlink="http://www.w3.org/1999/xlink" x="0px" y="0px"
	 width="81.396px" height="119.669px" viewBox="1106.24 -1301.478 81.396 119.669"
	 enable-background="new 1106.24 -1301.478 81.396 119.669" xml:space="preserve">
<g>
	<path fill-rule="evenodd" clip-rule="evenodd" fill="#018DD1" d="M1143.298-1225.302c-1.877-6.41-2.405-12.955-1.965-19.599
		c0.403-6.076,1.666-11.937,4.355-17.438c0.225-0.46,0.162-0.769-0.115-1.163c-1.395-1.978-3.017-3.738-4.995-5.134
		c-0.558-0.394-0.718-0.807-0.716-1.462c0.023-7.631,0.016-15.263,0.014-22.895c0-0.278-0.023-0.558-0.039-0.898
		c-3.777,1.286-7.463,2.558-11.166,3.779c-0.627,0.207-0.797,0.492-0.793,1.134c0.029,5.016,0.006,10.032,0.029,15.047
		c0.004,0.6-0.127,0.809-0.757,0.74c-0.883-0.095-1.775-0.125-2.665-0.126c-6.014-0.01-12.026-0.004-18.04-0.004
		c-0.068-0.011-0.137-0.021-0.205-0.032c0,21.521,0,43.041,0,64.562c0.07-0.013,0.141-0.025,0.212-0.038
		c6.848-0.068,13.697,0.147,20.544-0.13c0.776-0.032,0.915,0.193,0.913,0.911c-0.023,8.468-0.015,16.935-0.015,25.402
		c0,0.96,0.001,0.96,0.88,0.661c3.438-1.171,6.87-2.361,10.319-3.498c0.626-0.206,0.802-0.489,0.8-1.137
		c-0.024-8.548-0.01-17.097-0.028-25.645c-0.001-0.546,0.163-0.878,0.609-1.19c1.919-1.341,3.504-3.021,4.893-4.9
		c0.306-0.414,0.37-0.738,0.126-1.228C1144.579-1221.416,1143.873-1223.336,1143.298-1225.302z M1135.521-1231.901
		c-0.749,2.88-1.961,5.534-4.159,7.633c-1.837,1.754-4.039,2.633-6.572,2.681c-0.917,0.017-1.837-0.042-2.75,0.018
		c-0.714,0.046-0.944-0.138-0.939-0.905c0.035-6.202,0.02-12.405,0.02-18.607c0-6.229,0.009-12.459-0.013-18.688
		c-0.002-0.609,0.117-0.843,0.783-0.81c1.611,0.083,3.239-0.118,4.838,0.225c2.669,0.572,4.682,2.107,6.214,4.318
		c1.804,2.606,2.704,5.562,3.161,8.649C1136.87-1242.197,1136.851-1237.016,1135.521-1231.901z"/>
	<path fill-rule="evenodd" clip-rule="evenodd" fill="#018DD1" d="M1187.155-1216.38c-0.297-0.267-0.512-0.624-0.765-0.939
		c-2.191-2.732-4.384-5.463-6.625-8.258c-0.265,0.343-0.489,0.639-0.72,0.931c-4.058,5.165-11.723,5.563-15.781-0.501
		c-1.119-1.673-1.938-3.482-2.481-5.41c-1.61-5.705-1.707-11.484-0.728-17.295c0.531-3.16,1.541-6.149,3.414-8.808
		c3.961-5.625,11.3-4.944,14.884-1.164c0.536,0.565,1.052,1.151,1.607,1.762c2.51-3.385,5.007-6.762,7.521-10.126
		c0.256-0.343,0.164-0.561-0.064-0.843c-0.853-1.051-1.76-2.054-2.83-2.878c-6.352-4.897-13.455-5.74-21.045-3.828
		c-1.201,0.303-1.188,0.354-1.188-0.847c0-8.683,0-17.364,0-26.047c0-0.97-0.002-0.972-0.883-0.671
		c-3.438,1.171-6.868,2.364-10.319,3.497c-0.634,0.208-0.8,0.492-0.799,1.134c0.021,10.947,0.013,21.895,0.023,32.841
		c0,0.559-0.12,1.039-0.399,1.527c-1.558,2.728-2.671,5.638-3.446,8.676c-1.644,6.448-1.944,12.979-1.158,19.573
		c0.625,5.237,2.021,10.236,4.611,14.861c0.275,0.491,0.393,0.972,0.393,1.529c-0.011,8.817-0.002,17.634-0.02,26.451
		c-0.001,0.673,0.124,0.823,0.802,0.585c3.453-1.208,6.918-2.386,10.392-3.535c0.6-0.198,0.83-0.437,0.824-1.111
		c-0.041-4.017-0.013-8.035-0.029-12.053c-0.002-0.564,0.058-0.76,0.705-0.541c2.896,0.984,5.884,1.237,8.93,1.036
		c6.188-0.407,11.295-2.883,15.21-7.76C1187.753-1215.292,1187.827-1215.773,1187.155-1216.38z"/>
</g>
</svg>
