<?xml version="1.0" encoding="utf-8"?>
<!-- Generator: Adobe Illustrator 16.0.0, SVG Export Plug-In . SVG Version: 6.00 Build 0)  -->
<!DOCTYPE svg PUBLIC "-//W3C//DTD SVG 1.1//EN" "http://www.w3.org/Graphics/SVG/1.1/DTD/svg11.dtd">
<svg version="1.1" id="Layer_1" xmlns="http://www.w3.org/2000/svg" xmlns:xlink="http://www.w3.org/1999/xlink" x="0px" y="0px"
	 width="96px" height="96px" viewBox="1569.5 -1292.5 96 96" enable-background="new 1569.5 -1292.5 96 96" xml:space="preserve">
<circle fill="#A55CCF" cx="1617.5" cy="-1244.5" r="48"/>
<g>
	<g>
		<path fill-rule="evenodd" clip-rule="evenodd" fill="#FFFFFF" d="M1615.488-1235.541c0.235,0.139,0.7,0.114,0.947-0.027
			c6.18-3.523,12.344-7.071,18.51-10.617c0.253-0.146,0.494-0.312,0.743-0.47c-6.473-10.666-12.889-21.241-19.37-31.922
			c-6.509,10.727-12.947,21.338-19.383,31.944c0.162,0.127,0.223,0.187,0.293,0.229
			C1603.311-1242.776,1609.392-1239.144,1615.488-1235.541z"/>
		<path fill-rule="evenodd" clip-rule="evenodd" fill="#FFFFFF" d="M1635.669-1243.202c-6.386,3.669-12.772,7.335-19.149,11.019
			c-0.438,0.253-0.752,0.279-1.201,0.008c-4.196-2.531-8.408-5.035-12.617-7.544c-2.134-1.272-4.271-2.538-6.405-3.807
			c-0.035,0.042-0.069,0.083-0.104,0.125c6.688,9.287,13.377,18.575,20.128,27.948c6.775-9.41,13.492-18.737,20.209-28.064
			C1636.184-1243.483,1635.923-1243.348,1635.669-1243.202z"/>
	</g>
</g>
</svg>
