<?xml version="1.0" encoding="utf-8"?>
<!-- Generator: Adobe Illustrator 16.0.0, SVG Export Plug-In . SVG Version: 6.00 Build 0)  -->
<!DOCTYPE svg PUBLIC "-//W3C//DTD SVG 1.1//EN" "http://www.w3.org/Graphics/SVG/1.1/DTD/svg11.dtd">
<svg version="1.1" id="Layer_1" xmlns="http://www.w3.org/2000/svg" xmlns:xlink="http://www.w3.org/1999/xlink" x="0px" y="0px"
	 width="454.754px" height="455.143px" viewBox="2190.902 -2610.878 454.754 455.143"
	 enable-background="new 2190.902 -2610.878 454.754 455.143" xml:space="preserve">
<path fill="#999999" d="M2458.13-2393.96c-0.754,0.073-1.405,0.242-1.985,0.452l1.904-1.096c0.412-0.236,0.8-0.485,1.206-0.751
	l4.568-2.908l-42.175-69.5l-2.104-3.471l-42.928,70.749l-1.137,1.866l3.695,2.906c0.115,0.094,0.277,0.22,0.465,0.355l-5.346,6.387
	l45.251,62.833l49.604-68.886L2458.13-2393.96z M2415.019-2362.753c1.221,0.737,2.439,1.095,3.727,1.095
	c1.862,0,3.243-0.799,3.695-1.061c6.325-3.653,12.799-7.38,18.951-10.918l-21.846,30.337l-21.201-29.438
	C2403.844-2369.459,2409.457-2366.107,2415.019-2362.753z M2416.523-2373.553c0.838,0.283,1.636,0.37,2.229,0.37
	c0.549,0,1.492-0.066,2.502-0.43c-0.822,0.474-1.646,0.948-2.466,1.422C2418.035-2372.644,2417.279-2373.098,2416.523-2373.553z
	 M2449.801-2401.429c-10.107,5.813-20.549,11.819-30.962,17.76c-10.064-5.953-20.14-11.963-29.901-17.789l30.606-50.441
	l30.53,50.313L2449.801-2401.429z"/>
<path fill-rule="evenodd" clip-rule="evenodd" fill="#999999" d="M2418.429-2155.739c-72.317,0.004-144.634,0.005-216.952,0.003
	c-8.85-0.001-10.844-2.977-10.547-11.974c0.511-15.479,0.202-30.987,0.203-46.483c0.008-73.483,0.052-146.967-0.095-220.449
	c-0.011-5.397,1.677-8.75,6.14-11.955c74.133-53.24,148.13-106.669,222.158-160.054c7.92-5.711,8.781-5.667,16.453,0.33
	c67.847,53.044,135.676,106.111,203.606,159.048c4.313,3.361,6.237,6.789,6.225,12.494c-0.206,87.979-0.144,175.959-0.144,263.938
	c0,0.667-0.027,1.336,0.017,1.999c0.765,11.481-0.807,13.102-12.612,13.101C2561.396-2155.746,2489.912-2155.743,2418.429-2155.739z
	 M2630.929-2177.654c0-82.905,0-165.093,0-247.751c-2.03,1.218-3.591,2.119-5.12,3.075
	c-66.787,41.744-133.602,83.445-200.299,125.334c-5.238,3.29-9.252,3.341-14.533,0.024
	c-66.554-41.801-133.234-83.401-199.887-125.046c-1.731-1.081-3.508-2.09-5.426-3.229c0,82.943,0,165.124,0,247.79
	c2.203-1.317,3.912-2.313,5.596-3.351c42.236-26.039,84.471-52.084,126.709-78.121c1.416-0.872,2.813-1.81,4.317-2.496
	c3.812-1.738,6.937-0.526,9.019,2.855c2.014,3.271,1.264,6.441-1.543,8.983c-1.094,0.99-2.494,1.646-3.77,2.433
	c-39.681,24.475-79.365,48.944-119.043,73.425c-1.402,0.864-2.744,1.826-4.995,3.333c131.579,0,261.796,0,393.126,0
	c-2.195-1.513-3.473-2.457-4.813-3.305c-38.967-24.68-77.941-49.348-116.91-74.025c-1.686-1.067-3.479-2.037-4.951-3.356
	c-2.865-2.569-3.246-5.821-1.316-9.033c1.992-3.316,5.172-4.033,8.699-2.726c1.381,0.512,2.599,1.478,3.864,2.278
	c42.071,26.625,84.138,53.256,126.21,79.879C2627.378-2179.726,2628.938-2178.842,2630.929-2177.654z M2322.847-2368.968
	c-4.335-16.375-5.186-31.732-2.288-47.144c2.907-15.458,9.107-29.55,18.756-42.015c9.635-12.445,21.475-22.258,35.703-29.093
	c14.205-6.823,29.238-10.313,44.951-9.868c28.138,0.796,52.31,11.198,71.313,32.091c24.781,27.245,31.352,59.285,22.769,95.742
	c37.724-23.587,74.615-46.654,112.104-70.095c-2.064-1.661-3.557-2.895-5.082-4.086c-63.135-49.346-126.296-98.658-189.35-148.107
	c-3.313-2.598-5.377-2.736-8.849-0.225c-68.69,49.694-137.486,99.244-206.258,148.827c-1.742,1.256-3.452,2.556-5.555,4.113
	C2248.217-2415.606,2284.99-2392.626,2322.847-2368.968z M2418.953-2482.93c-63.555-0.706-105.674,67.341-76.586,123.848
	c1.069,2.077,2.932,4.055,4.912,5.307c22.365,14.127,44.864,28.044,67.215,42.195c2.818,1.785,4.719,1.755,7.502-0.007
	c22.213-14.059,44.57-27.889,66.773-41.963c2.238-1.419,4.318-3.7,5.51-6.066C2522.605-2415.861,2482.016-2482.229,2418.953-2482.93
	z"/>
</svg>
