<?xml version="1.0" encoding="utf-8"?>
<!-- Generator: Adobe Illustrator 16.0.0, SVG Export Plug-In . SVG Version: 6.00 Build 0)  -->
<!DOCTYPE svg PUBLIC "-//W3C//DTD SVG 1.1//EN" "http://www.w3.org/Graphics/SVG/1.1/DTD/svg11.dtd">
<svg version="1.1" id="Layer_1" xmlns="http://www.w3.org/2000/svg" xmlns:xlink="http://www.w3.org/1999/xlink" x="0px" y="0px"
	 width="454.754px" height="455.143px" viewBox="1544.139 -2625.043 454.754 455.143"
	 enable-background="new 1544.139 -2625.043 454.754 455.143" xml:space="preserve">
<g>
	<path fill-rule="evenodd" clip-rule="evenodd" fill="#999999" d="M1998.729-2183.007c-0.044-0.663-0.017-1.332-0.017-1.999
		c0-87.979-0.063-175.959,0.144-263.938c0.013-5.705-1.911-9.133-6.225-12.494c-67.931-52.937-135.76-106.004-203.606-159.048
		c-7.672-5.997-8.533-6.041-16.453-0.33c-74.028,53.385-148.025,106.813-222.158,160.054c-4.463,3.205-6.15,6.558-6.14,11.955
		c0.146,73.482,0.103,146.966,0.095,220.449c-0.001,15.496,0.308,31.004-0.203,46.483c-0.297,8.997,1.697,11.973,10.547,11.974
		c72.318,0.002,144.635,0.001,216.952-0.003c71.483-0.004,142.968-0.007,214.452-0.002
		C1997.923-2169.905,1999.494-2171.525,1998.729-2183.007z M1569.853-2457.104c68.771-49.583,137.567-99.133,206.258-148.827
		c3.472-2.512,5.536-2.373,8.849,0.225c63.054,49.449,126.215,98.762,189.35,148.107c1.525,1.191,3.018,2.425,5.082,4.086
		c-37.489,23.44-74.381,46.508-112.104,70.095c8.583-36.457,2.013-68.497-22.769-95.742c-19.003-20.893-43.175-31.295-71.313-32.091
		c-15.713-0.444-30.746,3.045-44.951,9.868c-14.229,6.835-26.068,16.647-35.703,29.093c-9.648,12.465-15.849,26.557-18.756,42.015
		c-2.897,15.411-2.047,30.769,2.288,47.144c-37.856-23.658-74.63-46.639-111.785-69.858
		C1566.4-2454.549,1568.11-2455.849,1569.853-2457.104z M1847.516-2373.781c-1.191,2.366-3.271,4.647-5.51,6.066
		c-22.203,14.074-44.561,27.904-66.773,41.963c-2.783,1.762-4.684,1.792-7.502,0.007c-22.351-14.151-44.85-28.068-67.215-42.195
		c-1.98-1.252-3.843-3.229-4.912-5.307c-29.088-56.507,13.031-124.554,76.586-123.848
		C1835.252-2496.395,1875.842-2430.026,1847.516-2373.781z M1984.165-2191.819c-1.99-1.188-3.551-2.071-5.065-3.029
		c-42.072-26.623-84.139-53.254-126.21-79.879c-1.266-0.801-2.483-1.767-3.864-2.278c-3.527-1.308-6.707-0.591-8.699,2.726
		c-1.93,3.212-1.549,6.464,1.316,9.033c1.472,1.319,3.266,2.289,4.951,3.356c38.969,24.678,77.943,49.346,116.91,74.025
		c1.34,0.848,2.617,1.792,4.813,3.305c-131.33,0-261.547,0-393.126,0c2.251-1.507,3.593-2.469,4.995-3.333
		c39.678-24.48,79.362-48.95,119.043-73.425c1.275-0.786,2.676-1.442,3.77-2.433c2.807-2.542,3.557-5.713,1.543-8.983
		c-2.082-3.382-5.207-4.594-9.019-2.855c-1.505,0.687-2.901,1.624-4.317,2.496c-42.238,26.037-84.473,52.082-126.709,78.121
		c-1.684,1.037-3.393,2.033-5.596,3.351c0-82.666,0-164.847,0-247.79c1.918,1.14,3.694,2.148,5.426,3.229
		c66.652,41.645,133.333,83.245,199.887,125.046c5.281,3.316,9.295,3.266,14.533-0.024c66.697-41.889,133.512-83.59,200.299-125.334
		c1.529-0.956,3.09-1.857,5.12-3.075C1984.165-2356.912,1984.165-2274.725,1984.165-2191.819z"/>
	<path fill-rule="evenodd" clip-rule="evenodd" fill="#999999" d="M1804.309-2416.981c4.666-10.792,5.121-21.439-0.094-31.963
		c-5.898-11.902-16.571-13.671-28.826-12.402c0-5.048,0-9.452,0-13.952c-4.931,0-9.322,0-14.283,0c0,4.723,0,9.123,0,13.786
		c-6.219,0-11.866-0.009-17.514,0.002c-8.931,0.019-10.937,1.968-10.941,10.756c-0.013,26.303-0.007,52.606,0.003,78.909
		c0.003,7.544,2.304,9.921,9.762,9.991c6.102,0.057,12.204,0.012,18.946,0.012c0,5.047,0,9.442,0,13.831c5.045,0,9.426,0,14.346,0
		c0-4.803,0-9.202,0-13.854c6.202,0,11.856,0.077,17.508-0.016c11.843-0.194,20.558-6.456,24.654-17.593
		C1823.105-2393.711,1818.365-2407.157,1804.309-2416.981z M1760.872-2376.481c-4.555,0-8.826,0-13.515,0c0-9.313,0-18.495,0-27.875
		c4.525,0,8.818,0,13.515,0C1760.872-2395.233,1760.872-2386.192,1760.872-2376.481z M1760.971-2419.158c-4.488,0-8.862,0-13.637,0
		c0-9.158,0-18.352,0-27.885c4.832,0,9.087,0,13.637,0C1760.971-2437.701,1760.971-2428.646,1760.971-2419.158z M1775.708-2447.26
		c5.449,0.522,11.43-2.362,15.11,3.723c4.011,6.629,3.932,13.631,0.379,20.438c-3.506,6.72-9.791,3.62-15.489,4.49
		C1775.708-2428.599,1775.708-2437.687,1775.708-2447.26z M1805.523-2388.948c-0.416,6.892-4.697,12.318-10.496,12.592
		c-6.286,0.296-12.598,0.066-19.398,0.066c0-9.624,0-18.565,0-28.087c6.964,0,13.918-0.495,20.764,0.152
		C1802.176-2403.678,1805.982-2396.556,1805.523-2388.948z"/>
</g>
</svg>
