<?xml version="1.0" encoding="utf-8"?>
<!-- Generator: Adobe Illustrator 16.0.0, SVG Export Plug-In . SVG Version: 6.00 Build 0)  -->
<!DOCTYPE svg PUBLIC "-//W3C//DTD SVG 1.1//EN" "http://www.w3.org/Graphics/SVG/1.1/DTD/svg11.dtd">
<svg version="1.1" id="Layer_1" xmlns="http://www.w3.org/2000/svg" xmlns:xlink="http://www.w3.org/1999/xlink" x="0px" y="0px"
	 width="96px" height="96px" viewBox="1305 -1297 96 96" enable-background="new 1305 -1297 96 96" xml:space="preserve">
<circle fill="#19ADBB" cx="1353" cy="-1249" r="48"/>
<path fill-rule="evenodd" clip-rule="evenodd" fill="#FFFFFF" d="M1347.754-1218.05c0-1.451,0-2.832,0-4.319
	c-6.48-1.713-11.365-5.236-13.617-11.96c3.031-0.871,5.957-1.724,8.896-2.532c0.211-0.059,0.647,0.142,0.75,0.34
	c2.227,4.275,6.096,4.96,10.34,4.679c2.104-0.14,4.088-0.836,5.791-2.131c0.611-0.463,1.192-1.014,1.646-1.628
	c1.436-1.947,1.193-3.64-0.748-5.098c-2.607-1.96-5.688-2.828-8.796-3.555c-3.625-0.848-7.242-1.693-10.56-3.463
	c-4.234-2.259-7.391-5.4-8.221-10.348c-0.984-5.856,1.219-10.485,5.658-14.177c2.299-1.911,4.962-3.136,7.84-3.908
	c0.311-0.084,0.619-0.179,1.014-0.292c0-1.45,0-2.866,0-4.339c3.275,0,6.45,0,9.809,0c0,1.042,0.06,2.092-0.019,3.13
	c-0.069,0.923,0.202,1.302,1.158,1.582c5.775,1.688,10.098,5.065,12.192,10.9c0.066,0.187,0.106,0.384,0.19,0.692
	c-2.975,0.854-5.904,1.707-8.847,2.515c-0.206,0.057-0.637-0.154-0.74-0.355c-2.193-4.234-6.029-4.932-10.227-4.677
	c-2.32,0.142-4.476,0.944-6.311,2.435c-3.057,2.481-2.908,6.146,0.612,7.832c2.726,1.306,5.738,2.067,8.681,2.857
	c4.404,1.183,8.723,2.522,12.444,5.27c6.112,4.514,7.378,12.036,3.116,18.337c-1.445,2.136-3.266,3.92-5.529,5.123
	c-2.113,1.122-4.359,1.988-6.734,3.05c0,1.147,0,2.563,0,4.041C1354.268-1218.05,1351.094-1218.05,1347.754-1218.05z"/>
</svg>
