<?xml version="1.0" encoding="utf-8"?>
<!-- Generator: Adobe Illustrator 16.0.0, SVG Export Plug-In . SVG Version: 6.00 Build 0)  -->
<!DOCTYPE svg PUBLIC "-//W3C//DTD SVG 1.1//EN" "http://www.w3.org/Graphics/SVG/1.1/DTD/svg11.dtd">
<svg version="1.1" id="Layer_1" xmlns="http://www.w3.org/2000/svg" xmlns:xlink="http://www.w3.org/1999/xlink" x="0px" y="0px"
	 width="479.653px" height="415.634px" viewBox="1557.592 -3217.292 479.653 415.634"
	 enable-background="new 1557.592 -3217.292 479.653 415.634" xml:space="preserve">
<g>
	<path fill-rule="evenodd" clip-rule="evenodd" fill="#999999" d="M2037.135-3017.22c-0.062-9.208-4.18-16.475-12.359-20.798
		c-3.116-1.646-3.641-3.565-3.628-6.642c0.094-22.327,0.115-44.655,0.015-66.982c-0.102-22.355-9.785-39.241-29.084-50.69
		c-1.668-0.989-3.26-3.361-3.521-5.277c-3.978-29.142-26.806-49.646-55.826-49.656c-113.473-0.037-226.943-0.03-340.416-0.001
		c-21.471,0.005-34.695,13.146-34.701,34.513c-0.034,107.807-0.035,215.613,0.049,323.42c0.004,4.79,0.471,9.688,1.54,14.349
		c5.874,25.613,27.95,43.181,54.722,43.248c58.317,0.148,116.636,0.046,174.954,0.045c58.152-0.002,116.305,0.037,174.457-0.071
		c4.95-0.009,10.025-0.471,14.829-1.619c25.543-6.104,42.84-28.056,42.99-54.429c0.131-22.994,0.101-45.989-0.025-68.982
		c-0.018-3.063,0.873-4.656,3.633-6.136c8.185-4.387,12.293-11.625,12.363-20.807
		C2037.291-2974.897,2037.275-2996.06,2037.135-3017.22z M1573.285-3187.886c1.059-7.887,7.933-13.774,16.449-13.785
		c36.65-0.047,73.301-0.016,109.951-0.016c77.633-0.001,155.265-0.023,232.896,0.008c18.457,0.007,33.464,10.788,39.008,27.839
		c0.486,1.494,0.741,3.064,1.098,4.577c-38.006,0-75.436,0-112.866,0c-88.96,0-177.921,0.004-266.882-0.019
		c-2.485,0-5.055,0.076-7.442-0.487C1577.333-3171.698,1572.165-3179.541,1573.285-3187.886z M2005.598-2857.604
		c-0.072,22.592-17.69,40.312-40.248,40.318c-117.303,0.038-234.605,0.028-351.907-0.018c-22.577-0.009-40.212-17.686-40.222-40.285
		c-0.045-98.309-0.03-196.617-0.037-294.925c0-1.487,0-2.974,0-5.693c10.063,5.632,20.144,4.5,30.07,4.502
		c120.303,0.016,240.605-0.001,360.908,0.021c20.92,0.004,36.787,12.94,40.896,33.172c0.199,0.977,0.44,1.971,0.441,2.957
		c0.024,25.148,0.02,50.296,0.02,76.278c-1.902,0-3.646,0-5.39,0.001c-22.494,0.007-44.991-0.199-67.482,0.075
		c-29.978,0.364-54.303,24.578-55.011,54.338c-0.738,30.992,24.039,56.763,55.255,57.11c21.991,0.246,43.988,0.054,65.982,0.057
		c1.979,0,3.958,0,6.481,0c0.096,2.086,0.246,3.847,0.248,5.607C2005.619-2901.926,2005.669-2879.765,2005.598-2857.604z
		 M2021.602-2955.073c-0.012,6.832-2.91,9.786-9.66,9.795c-26.633,0.031-53.266,0.149-79.896-0.04
		c-21.352-0.152-38.842-18.404-38.859-40.109c-0.019-21.732,17.449-39.965,38.746-40.229c13.147-0.162,26.299-0.029,39.449-0.029
		c13.482-0.009,26.965-0.037,40.447,0.003c6.798,0.02,9.76,2.938,9.771,9.688
		C2021.638-2995.687,2021.635-2975.379,2021.602-2955.073z"/>
	<path fill-rule="evenodd" clip-rule="evenodd" fill="#999999" d="M1791.234-2987.408c-1.389-0.63-2.729-1.369-4.553-2.291
		c2.029-1.746,3.42-2.917,4.781-4.121c32.109-28.407,27.788-79.254-8.621-101.883c-12.338-7.669-25.885-10.071-40.153-9.594
		c-3.078,0.103-6.163,0.015-9.509,0.015c0-8.124,0.225-15.452-0.125-22.752c-0.117-2.443-1.055-5.65-2.789-6.994
		c-1.854-1.436-5.265-1.86-7.685-1.324c-3.64,0.808-4.948,4.128-4.956,7.77c-0.018,7.608-0.006,15.218-0.006,22.893
		c-11.139,0-21.663,0-32.43,0c0-7.413,0.012-14.4-0.003-21.388c-0.014-6.309-2.975-10.141-7.812-10.155
		c-4.826-0.015-7.732,3.765-7.755,10.165c-0.024,7.108-0.005,14.216-0.005,21.811c-8.229,0-15.854-0.1-23.474,0.034
		c-5.286,0.093-8.935,3.87-8.464,8.389c0.438,4.207,3.826,7.069,8.793,7.13c7.594,0.092,15.188,0.023,22.859,0.023
		c0,69.771,0,138.825,0,208.419c-7.059,0-13.842-0.016-20.625,0.011c-1.659,0.006-3.405-0.156-4.96,0.288
		c-3.954,1.132-6.231,3.86-6.038,8.079c0.184,4.049,3.595,7.062,8.196,7.144c7.765,0.139,15.532,0.038,23.711,0.038
		c0,2.309-0.001,3.944,0,5.581c0.004,6.163-0.14,12.332,0.062,18.489c0.15,4.57,3.389,7.756,7.477,7.906
		c4.145,0.152,7.647-3.273,7.996-7.943c0.136-1.822,0.039-3.663,0.041-5.495c0.002-6.086,0-12.171,0-18.177
		c11.213,0,21.621,0,32.415,0c0,7.482-0.018,14.617,0.006,21.753c0.019,5.976,2.912,9.704,7.592,9.863
		c4.835,0.165,7.944-3.683,7.973-9.961c0.032-7.126,0.007-14.251,0.007-21.99c9.638,0,18.457,0.157,27.268-0.056
		c5.807-0.141,11.718-0.225,17.381-1.349c28.256-5.607,48.09-28.175,51.172-57.731
		C1831.652-2950.235,1815.996-2976.174,1791.234-2987.408z M1685.365-3089.449c1.914-0.087,3.676-0.233,5.438-0.235
		c19.332-0.016,38.664-0.028,57.996-0.002c25.494,0.035,46.886,19.26,48.708,43.732c1.948,26.168-15.944,48.634-41.75,52.419
		c-0.165,0.024-0.33,0.062-0.495,0.064c-3.998,0.071-7.996,0.193-11.994,0.197c-19.133,0.021-38.266,0.01-57.902,0.01
		C1685.365-3025.661,1685.365-3057.281,1685.365-3089.449z M1765.117-2881.277c-24.807,0.059-49.613,0.014-74.42,0.014
		c-1.627,0-3.254,0-5.195,0c0-32.186,0-63.905,0-96.413c3.125,0,5.92,0,8.715,0c23.641-0.006,47.283-0.057,70.924-0.006
		c27.186,0.059,48.527,21.438,48.471,48.457C1813.556-2902.604,1792.098-2881.339,1765.117-2881.277z"/>
	<path fill-rule="evenodd" clip-rule="evenodd" fill="#999999" d="M1933.766-3009.256c-12.99-0.235-23.973,10.457-24.145,23.507
		c-0.17,12.956,10.592,23.901,23.639,24.045c12.682,0.139,23.662-10.55,23.912-23.274
		C1957.428-2997.977,1946.78-3009.021,1933.766-3009.256z M1933.229-2977.305c-4.581-0.076-8.125-3.753-8.027-8.329
		c0.098-4.542,3.811-8.112,8.361-8.042c4.574,0.071,8.1,3.745,8.01,8.347C1941.482-2980.734,1937.836-2977.228,1933.229-2977.305z"
		/>
</g>
</svg>
