<?xml version="1.0" encoding="utf-8"?>
<!-- Generator: Adobe Illustrator 16.0.0, SVG Export Plug-In . SVG Version: 6.00 Build 0)  -->
<!DOCTYPE svg PUBLIC "-//W3C//DTD SVG 1.1//EN" "http://www.w3.org/Graphics/SVG/1.1/DTD/svg11.dtd">
<svg version="1.1" id="Layer_1" xmlns="http://www.w3.org/2000/svg" xmlns:xlink="http://www.w3.org/1999/xlink" x="0px" y="0px"
	 width="479.653px" height="415.634px" viewBox="2186.693 -3215.313 479.653 415.634"
	 enable-background="new 2186.693 -3215.313 479.653 415.634" xml:space="preserve">
<g>
	<g>
		<path fill="#999999" d="M2282.403-2980.74c0.361,0.297,0.812,0.667,1.413,1.025l7.158,4.271
			c22.681,13.532,46.133,27.524,69.272,41.199c1.809,1.066,3.757,1.29,5.072,1.29c1.145,0,3.373-0.176,5.437-1.356
			c23.484-13.388,47.304-27.087,70.338-40.335l7.131-4.102c0.819-0.471,1.591-0.968,2.44-1.522l6.313-4.019l-89.089-146.815
			l-0.854-1.409l-89.22,147.04l-0.46,0.757l4.549,3.573C2282.081-2981.003,2282.224-2980.887,2282.403-2980.74z M2367.034-3107.356
			l72.084,118.793l-4.435,2.549c-22.631,13.016-46.026,26.472-69.216,39.696c-22.658-13.395-45.608-27.088-67.806-40.333
			l-2.841-1.694L2367.034-3107.356z"/>
		<path fill="#999999" d="M2450.97-2969.291c-2.616,0.252-4.536,1.184-6.221,2.153l-9.664,5.553
			c-22.821,13.11-46.415,26.664-69.733,40.132c-14.655-8.834-29.885-17.909-43.341-25.926l-8.613-5.133
			c-5.869-3.499-11.743-6.987-17.617-10.475l-13.953-8.288l-7.258,8.674l92.469,128.397l98.271-136.47L2450.97-2969.291z
			 M2367.038-2856.536l-61.595-85.524l9.888,5.891c14.442,8.606,29.376,17.505,44.145,26.412c1.946,1.176,3.854,1.748,5.828,1.748
			c2.571,0,4.563-0.979,5.836-1.716c19.826-11.452,40.331-23.242,58.421-33.636L2367.038-2856.536z"/>
	</g>
</g>
<path fill-rule="evenodd" clip-rule="evenodd" fill="#999999" d="M2666.236-3015.241c-0.062-9.208-4.18-16.475-12.359-20.798
	c-3.116-1.646-3.641-3.565-3.628-6.642c0.094-22.327,0.115-44.655,0.015-66.982c-0.102-22.355-9.785-39.241-29.084-50.69
	c-1.668-0.989-3.26-3.361-3.521-5.277c-3.978-29.142-26.806-49.646-55.826-49.656c-113.473-0.037-226.943-0.03-340.416-0.001
	c-21.471,0.005-34.695,13.146-34.701,34.513c-0.034,107.807-0.035,215.613,0.049,323.42c0.004,4.79,0.471,9.688,1.54,14.349
	c5.874,25.613,27.95,43.181,54.722,43.248c58.317,0.148,116.636,0.046,174.954,0.045c58.152-0.002,116.305,0.037,174.457-0.071
	c4.95-0.009,10.025-0.471,14.829-1.619c25.543-6.104,42.84-28.056,42.99-54.429c0.131-22.994,0.101-45.989-0.025-68.982
	c-0.018-3.063,0.873-4.656,3.633-6.136c8.185-4.387,12.293-11.625,12.363-20.807
	C2666.393-2972.918,2666.377-2994.081,2666.236-3015.241z M2202.387-3185.907c1.059-7.887,7.933-13.774,16.449-13.785
	c36.65-0.047,73.301-0.016,109.951-0.016c77.633-0.001,155.265-0.023,232.896,0.008c18.457,0.007,33.464,10.788,39.008,27.839
	c0.486,1.494,0.741,3.064,1.098,4.577c-38.006,0-75.436,0-112.866,0c-88.96,0-177.921,0.004-266.882-0.019
	c-2.485,0-5.055,0.076-7.442-0.487C2206.435-3169.719,2201.267-3177.562,2202.387-3185.907z M2634.699-2855.625
	c-0.072,22.592-17.69,40.312-40.248,40.318c-117.303,0.038-234.605,0.028-351.907-0.018c-22.577-0.009-40.212-17.686-40.222-40.285
	c-0.045-98.309-0.03-196.617-0.037-294.925c0-1.487,0-2.974,0-5.693c10.063,5.632,20.144,4.5,30.07,4.502
	c120.303,0.016,240.605-0.001,360.908,0.021c20.92,0.004,36.787,12.94,40.896,33.172c0.199,0.977,0.44,1.971,0.441,2.957
	c0.024,25.148,0.02,50.296,0.02,76.278c-1.902,0-3.646,0-5.39,0.001c-22.494,0.007-44.991-0.199-67.482,0.075
	c-29.978,0.364-54.303,24.578-55.011,54.338c-0.738,30.992,24.039,56.763,55.255,57.11c21.991,0.246,43.988,0.054,65.982,0.057
	c1.979,0,3.958,0,6.481,0c0.096,2.086,0.246,3.847,0.248,5.607C2634.721-2899.947,2634.771-2877.786,2634.699-2855.625z
	 M2650.703-2953.094c-0.012,6.832-2.91,9.786-9.66,9.795c-26.633,0.031-53.266,0.149-79.896-0.04
	c-21.352-0.152-38.842-18.404-38.859-40.109c-0.019-21.732,17.449-39.965,38.746-40.229c13.147-0.162,26.299-0.029,39.449-0.029
	c13.482-0.009,26.965-0.037,40.447,0.003c6.798,0.02,9.76,2.938,9.771,9.688C2650.739-2993.708,2650.736-2973.4,2650.703-2953.094z"
	/>
<path fill-rule="evenodd" clip-rule="evenodd" fill="#999999" d="M2562.867-3007.277c-12.99-0.235-23.973,10.457-24.145,23.507
	c-0.17,12.956,10.592,23.901,23.639,24.045c12.682,0.139,23.662-10.55,23.912-23.274
	C2586.529-2995.998,2575.882-3007.042,2562.867-3007.277z M2562.33-2975.326c-4.581-0.076-8.125-3.753-8.027-8.329
	c0.098-4.542,3.811-8.112,8.361-8.042c4.574,0.071,8.1,3.745,8.01,8.347C2570.584-2978.755,2566.938-2975.249,2562.33-2975.326z"/>
</svg>
