<svg xmlns="http://www.w3.org/2000/svg" xmlns:xlink="http://www.w3.org/1999/xlink" preserveAspectRatio="xMidYMid" width="23" height="23" viewBox="0 0 23 23">
  <defs>
    <style>
      .cls-1 {
        fill: #c69;
        filter: url(#color-overlay-1);
        opacity: 0.3;
        fill-rule: evenodd;
      }
    </style>

    <filter id="color-overlay-1" filterUnits="userSpaceOnUse">
      <feFlood/>
      <feComposite operator="in" in2="SourceGraphic"/>
      <feBlend in2="SourceGraphic" result="solidFill"/>
    </filter>
  </defs>
  <path d="M11.500,-0.001 C5.159,-0.001 -0.000,5.158 -0.000,11.499 C-0.000,17.840 5.159,22.999 11.500,22.999 C17.841,22.999 23.000,17.840 23.000,11.499 C23.000,5.158 17.841,-0.001 11.500,-0.001 ZM19.406,6.676 L17.239,6.676 C16.936,5.453 16.524,4.347 16.017,3.406 C17.409,4.187 18.575,5.318 19.406,6.676 ZM20.774,11.499 C20.774,12.401 20.639,13.270 20.397,14.096 L17.646,14.096 C17.748,13.262 17.806,12.396 17.806,11.499 C17.806,10.601 17.748,9.735 17.646,8.902 L20.397,8.902 C20.639,9.727 20.774,10.597 20.774,11.499 ZM2.226,11.499 C2.226,10.597 2.361,9.727 2.603,8.902 L5.354,8.902 C5.252,9.735 5.193,10.601 5.193,11.499 C5.193,12.396 5.252,13.262 5.354,14.096 L2.603,14.096 C2.361,13.270 2.226,12.401 2.226,11.499 ZM7.419,11.499 C7.419,10.582 7.484,9.716 7.594,8.902 L10.387,8.902 L10.387,14.096 L7.594,14.096 C7.484,13.282 7.419,12.416 7.419,11.499 ZM12.613,2.628 C13.531,3.283 14.393,4.713 14.949,6.676 L12.613,6.676 L12.613,2.628 ZM10.387,2.628 L10.387,6.676 L8.050,6.676 C8.607,4.713 9.469,3.283 10.387,2.628 ZM10.387,16.321 L10.387,20.369 C9.469,19.714 8.607,18.285 8.050,16.321 L10.387,16.321 ZM12.613,20.369 L12.613,16.321 L14.949,16.321 C14.393,18.285 13.531,19.714 12.613,20.369 ZM12.613,14.096 L12.613,8.902 L15.406,8.902 C15.515,9.716 15.581,10.582 15.581,11.499 C15.581,12.416 15.515,13.282 15.406,14.096 L12.613,14.096 ZM6.983,3.406 C6.476,4.347 6.064,5.453 5.761,6.676 L3.593,6.676 C4.425,5.318 5.591,4.187 6.983,3.406 ZM3.593,16.321 L5.761,16.321 C6.064,17.545 6.476,18.651 6.983,19.591 C5.591,18.811 4.425,17.680 3.593,16.321 ZM16.017,19.591 C16.524,18.651 16.936,17.545 17.239,16.321 L19.406,16.321 C18.575,17.680 17.409,18.811 16.017,19.591 Z" class="cls-1"/>
</svg>
