<svg xmlns="http://www.w3.org/2000/svg" xmlns:xlink="http://www.w3.org/1999/xlink" preserveAspectRatio="xMidYMid" width="19" height="21" viewBox="0 0 19 21">
  <defs>
    <style>
      .cls-1 {
        fill: #7e75ad;
        filter: url(#color-overlay-1);
        opacity: 0.3;
        fill-rule: evenodd;
      }
    </style>

    <filter id="color-overlay-1" filterUnits="userSpaceOnUse">
      <feFlood/>
      <feComposite operator="in" in2="SourceGraphic"/>
      <feBlend in2="SourceGraphic" result="solidFill"/>
    </filter>
  </defs>
  <path d="M14.053,11.549 C14.769,10.342 15.200,8.846 15.200,7.219 C15.200,3.232 12.648,-0.000 9.500,-0.000 C6.352,-0.000 3.800,3.232 3.800,7.219 C3.800,8.846 4.230,10.342 4.947,11.549 C2.001,12.998 -0.000,15.802 -0.000,19.031 L-0.000,19.687 C-0.000,20.412 0.567,21.000 1.267,21.000 L17.733,21.000 C18.433,21.000 19.000,20.412 19.000,19.687 L19.000,19.031 C19.000,15.802 16.998,12.998 14.053,11.549 ZM9.500,1.969 C11.560,1.969 13.300,4.373 13.300,7.219 C13.300,10.064 11.560,12.469 9.500,12.469 C7.440,12.469 5.700,10.064 5.700,7.219 C5.700,4.373 7.440,1.969 9.500,1.969 ZM1.900,19.031 C1.900,16.427 3.667,14.175 6.219,13.116 C7.148,13.946 8.278,14.437 9.500,14.437 C10.722,14.437 11.852,13.946 12.780,13.116 C15.333,14.175 17.100,16.427 17.100,19.031 L1.900,19.031 Z" class="cls-1"/>
</svg>
