<svg xmlns="http://www.w3.org/2000/svg" xmlns:xlink="http://www.w3.org/1999/xlink" preserveAspectRatio="xMidYMid" width="24" height="25" viewBox="0 0 24 25">
  <defs>
    <style>
      .cls-1 {
        fill: #672727;
        filter: url(#color-overlay-1);
        opacity: 0.3;
        fill-rule: evenodd;
      }
    </style>

    <filter id="color-overlay-1" filterUnits="userSpaceOnUse">
      <feFlood/>
      <feComposite operator="in" in2="SourceGraphic"/>
      <feBlend in2="SourceGraphic" result="solidFill"/>
    </filter>
  </defs>
  <path d="M22.388,11.682 C21.196,13.135 19.481,14.064 17.560,14.298 C17.255,14.336 16.947,14.354 16.647,14.354 C15.719,14.355 14.812,14.177 13.949,13.825 C13.091,14.674 12.222,15.526 11.381,16.351 L10.924,16.799 L10.991,16.865 C11.486,17.350 11.975,17.829 12.464,18.308 C13.388,19.215 13.390,20.295 12.469,21.198 L12.218,21.444 C11.227,22.416 10.235,23.388 9.243,24.359 C8.809,24.784 8.327,25.000 7.810,25.000 C7.293,25.000 6.809,24.783 6.372,24.356 C5.861,23.856 5.351,23.356 4.835,22.849 L4.788,22.803 C4.783,22.807 4.779,22.812 4.774,22.816 C4.247,23.287 3.565,23.547 2.854,23.547 C2.424,23.547 1.996,23.448 1.615,23.262 C0.542,22.736 -0.017,21.836 -0.000,20.658 C0.010,19.925 0.313,19.262 0.901,18.688 C2.956,16.678 5.024,14.652 7.024,12.692 L8.964,10.790 C9.076,10.680 9.188,10.570 9.300,10.459 L9.305,10.454 C9.502,10.259 9.704,10.059 9.910,9.861 C9.183,8.083 9.206,6.074 9.979,4.325 C10.810,2.444 12.435,0.997 14.436,0.354 C15.167,0.119 15.924,-0.000 16.687,-0.000 C18.477,-0.000 20.209,0.650 21.565,1.831 C22.954,3.041 23.808,4.698 23.971,6.498 C24.141,8.390 23.579,10.231 22.388,11.682 ZM16.687,1.768 C16.115,1.768 15.547,1.857 14.997,2.034 C13.486,2.520 12.260,3.611 11.634,5.028 C11.008,6.443 11.034,8.064 11.705,9.476 C11.948,9.987 11.856,10.480 11.447,10.863 C11.155,11.137 10.862,11.425 10.580,11.705 C10.466,11.817 10.353,11.929 10.239,12.040 L8.299,13.942 C6.304,15.897 4.241,17.920 2.174,19.940 C1.928,20.180 1.807,20.423 1.803,20.682 C1.796,21.166 1.981,21.465 2.421,21.680 C2.555,21.746 2.700,21.779 2.854,21.779 C3.114,21.779 3.364,21.684 3.558,21.510 C3.689,21.393 3.821,21.266 3.959,21.131 C4.032,21.062 4.100,20.995 4.170,20.929 L4.808,20.321 L6.110,21.599 C6.631,22.110 7.138,22.608 7.646,23.105 C7.733,23.190 7.788,23.219 7.810,23.229 C7.832,23.219 7.885,23.190 7.969,23.108 C8.932,22.166 9.894,21.222 10.856,20.279 L11.193,19.948 C11.323,19.821 11.349,19.772 11.354,19.756 C11.349,19.738 11.320,19.688 11.188,19.558 C10.700,19.079 10.211,18.600 9.716,18.115 L8.396,16.822 L8.998,16.197 C9.020,16.174 9.040,16.153 9.058,16.134 C9.104,16.086 9.143,16.046 9.182,16.007 C9.489,15.705 9.796,15.404 10.104,15.103 L10.113,15.093 C11.037,14.188 11.991,13.252 12.923,12.329 C13.182,12.072 13.478,11.941 13.804,11.941 C13.996,11.941 14.179,11.985 14.379,12.078 C15.309,12.513 16.305,12.670 17.337,12.544 C20.314,12.181 22.439,9.593 22.174,6.653 C21.927,3.914 19.517,1.768 16.687,1.768 ZM16.691,10.476 L16.691,10.476 C14.837,10.476 13.325,8.999 13.320,7.185 C13.317,6.305 13.667,5.475 14.305,4.848 C14.945,4.219 15.793,3.873 16.694,3.873 L16.709,3.873 C18.561,3.882 20.062,5.369 20.056,7.188 C20.054,8.071 19.703,8.898 19.070,9.517 C18.437,10.136 17.592,10.476 16.691,10.476 ZM16.702,5.641 L16.694,5.641 C16.276,5.641 15.881,5.803 15.583,6.096 C15.285,6.389 15.122,6.774 15.123,7.180 C15.126,8.023 15.829,8.708 16.690,8.709 C17.564,8.709 18.250,8.038 18.253,7.183 C18.256,6.337 17.560,5.645 16.702,5.641 Z" class="cls-1"/>
</svg>
