<svg xmlns="http://www.w3.org/2000/svg" xmlns:xlink="http://www.w3.org/1999/xlink" preserveAspectRatio="xMidYMid" width="23" height="23" viewBox="0 0 23 23">
  <defs>
    <style>
      .cls-1 {
        fill: #af6ca1;
        filter: url(#color-overlay-1);
        opacity: 0.3;
        fill-rule: evenodd;
      }
    </style>

    <filter id="color-overlay-1" filterUnits="userSpaceOnUse">
      <feFlood/>
      <feComposite operator="in" in2="SourceGraphic"/>
      <feBlend in2="SourceGraphic" result="solidFill"/>
    </filter>
  </defs>
  <path d="M16.902,23.000 C16.300,23.000 15.707,22.898 15.140,22.698 C8.116,20.213 2.553,14.503 0.257,7.424 C-0.432,5.295 0.299,2.955 2.078,1.599 L3.211,0.735 C3.840,0.254 4.593,-0.000 5.389,-0.000 C6.740,-0.000 7.966,0.748 8.586,1.953 L10.502,5.676 C10.684,6.030 10.780,6.426 10.780,6.823 C10.780,7.453 10.545,8.057 10.117,8.522 L9.719,8.956 C9.321,9.387 9.236,10.026 9.504,10.546 C10.159,11.814 11.175,12.830 12.445,13.484 C12.957,13.748 13.614,13.658 14.036,13.270 L14.471,12.872 C15.227,12.177 16.406,12.017 17.319,12.487 L21.045,14.401 C22.251,15.020 23.001,16.244 23.001,17.596 C23.001,18.546 22.632,19.441 21.963,20.119 L20.666,21.430 C19.680,22.428 18.309,23.000 16.902,23.000 ZM5.389,2.155 C5.071,2.155 4.770,2.256 4.520,2.447 L3.386,3.312 C2.333,4.114 1.901,5.500 2.309,6.760 C4.399,13.205 9.465,18.405 15.860,20.666 C16.981,21.063 18.299,20.759 19.131,19.917 L20.428,18.605 C20.696,18.333 20.844,17.975 20.844,17.596 C20.844,17.056 20.543,16.566 20.059,16.317 L16.333,14.403 C16.183,14.326 16.000,14.394 15.930,14.458 L15.495,14.858 C14.421,15.843 12.755,16.068 11.458,15.399 C9.787,14.538 8.447,13.201 7.588,11.533 C6.907,10.213 7.124,8.592 8.129,7.499 L8.528,7.065 C8.571,7.018 8.623,6.938 8.623,6.823 C8.623,6.766 8.610,6.712 8.584,6.661 L6.668,2.938 C6.420,2.455 5.929,2.155 5.389,2.155 Z" class="cls-1"/>
</svg>
