<svg xmlns="http://www.w3.org/2000/svg" xmlns:xlink="http://www.w3.org/1999/xlink" preserveAspectRatio="xMidYMid" width="24" height="21" viewBox="0 0 24 21">
  <defs>
    <style>
      .cls-1 {
        fill: #7e75ad;
        filter: url(#color-overlay-1);
        opacity: 0.3;
        fill-rule: evenodd;
      }
    </style>

    <filter id="color-overlay-1" filterUnits="userSpaceOnUse">
      <feFlood/>
      <feComposite operator="in" in2="SourceGraphic"/>
      <feBlend in2="SourceGraphic" result="solidFill"/>
    </filter>
  </defs>
  <path d="M18.000,3.750 L18.000,1.500 C18.000,0.671 17.328,-0.000 16.500,-0.000 L7.500,-0.000 C6.672,-0.000 6.000,0.671 6.000,1.500 L6.000,3.750 L1.500,3.750 C0.671,3.750 -0.000,4.422 -0.000,5.250 L-0.000,19.500 C-0.000,20.328 0.671,21.000 1.500,21.000 L22.500,21.000 C23.328,21.000 24.000,20.328 24.000,19.500 L24.000,5.250 C24.000,4.422 23.328,3.750 22.500,3.750 L18.000,3.750 ZM8.250,2.250 L15.750,2.250 L15.750,3.750 L8.250,3.750 L8.250,2.250 ZM21.750,6.000 L21.750,10.500 L14.250,10.500 L14.250,9.750 L9.750,9.750 L9.750,10.500 L2.250,10.500 L2.250,6.000 L21.750,6.000 ZM2.250,18.750 L2.250,12.750 L9.750,12.750 L9.750,13.500 L14.250,13.500 L14.250,12.750 L21.750,12.750 L21.750,18.750 L2.250,18.750 Z" class="cls-1"/>
</svg>
