<svg xmlns="http://www.w3.org/2000/svg" xmlns:xlink="http://www.w3.org/1999/xlink" preserveAspectRatio="xMidYMid" width="15" height="14" viewBox="0 0 15 14">
  <defs>
    <style>
      .cls-1 {
        fill: #000;
        filter: url(#color-overlay-1);
        fill-rule: evenodd;
      }
    </style>

    <filter id="color-overlay-1" filterUnits="userSpaceOnUse">
      <feFlood flood-color="#676767"/>
      <feComposite operator="in" in2="SourceGraphic"/>
      <feBlend in2="SourceGraphic" result="solidFill"/>
    </filter>
  </defs>
  <path d="M7.302,13.998 C3.317,13.901 -0.005,10.857 0.001,6.979 C0.008,3.126 3.376,-0.005 7.509,-0.001 C11.647,0.004 15.007,3.144 15.000,7.008 C14.993,10.972 11.484,14.100 7.302,13.998 ZM7.500,1.198 C4.049,1.199 1.253,3.809 1.249,7.034 C1.245,10.259 4.055,12.882 7.508,12.876 C10.961,12.869 13.758,10.252 13.752,7.033 C13.746,3.807 10.950,1.198 7.500,1.198 ZM8.476,6.932 C8.314,7.063 8.150,7.193 7.992,7.328 C7.765,7.521 7.649,7.764 7.620,8.048 C7.598,8.263 7.492,8.384 7.266,8.426 C7.134,8.450 6.992,8.454 6.859,8.437 C6.641,8.409 6.538,8.273 6.539,8.063 C6.541,7.492 6.771,7.019 7.235,6.646 C7.504,6.428 7.781,6.219 8.048,5.999 C8.294,5.797 8.486,5.563 8.546,5.248 C8.658,4.656 8.319,4.222 7.679,4.149 C7.148,4.089 6.640,4.171 6.146,4.353 C6.065,4.383 5.985,4.417 5.902,4.444 C5.641,4.526 5.458,4.453 5.338,4.220 C5.306,4.158 5.273,4.097 5.245,4.034 C5.145,3.809 5.219,3.631 5.455,3.527 C6.017,3.278 6.719,3.135 7.427,3.125 C7.874,3.127 8.313,3.174 8.723,3.357 C9.383,3.652 9.742,4.137 9.792,4.823 C9.838,5.445 9.624,5.971 9.141,6.397 C8.929,6.585 8.698,6.754 8.476,6.932 ZM7.582,9.417 C7.640,9.448 7.694,9.490 7.739,9.537 C7.958,9.763 7.997,10.221 7.827,10.518 C7.676,10.784 7.358,10.917 6.989,10.870 C6.541,10.812 6.307,10.534 6.316,10.070 C6.327,9.431 6.984,9.091 7.582,9.417 Z" class="cls-1"/>
</svg>
