<svg xmlns="http://www.w3.org/2000/svg" xmlns:xlink="http://www.w3.org/1999/xlink" preserveAspectRatio="xMidYMid" width="23" height="23" viewBox="0 0 23 23">
  <defs>
    <style>
      .cls-1 {
        fill: #9171a8;
        filter: url(#color-overlay-1);
        opacity: 0.3;
        fill-rule: evenodd;
      }
    </style>

    <filter id="color-overlay-1" filterUnits="userSpaceOnUse">
      <feFlood/>
      <feComposite operator="in" in2="SourceGraphic"/>
      <feBlend in2="SourceGraphic" result="solidFill"/>
    </filter>
  </defs>
  <path d="M11.498,3.976 L13.194,7.792 C13.477,8.432 14.054,8.894 14.741,9.031 L19.563,9.996 L16.255,13.297 C15.747,13.805 15.525,14.532 15.663,15.238 L16.587,19.960 L12.372,18.092 C12.094,17.968 11.796,17.906 11.498,17.906 C11.200,17.906 10.903,17.968 10.624,18.092 L6.408,19.961 L7.331,15.237 C7.469,14.532 7.247,13.806 6.739,13.298 L3.434,9.996 L8.255,9.031 C8.941,8.894 9.519,8.432 9.803,7.792 L11.498,3.976 M11.498,-0.000 C11.139,-0.000 10.811,0.213 10.664,0.542 L7.832,6.916 L0.727,8.339 C0.399,8.406 0.135,8.647 0.037,8.970 C-0.061,9.289 0.027,9.637 0.266,9.879 L5.214,14.823 L3.832,21.904 C3.763,22.250 3.852,22.585 4.119,22.800 C4.279,22.926 4.484,22.995 4.696,22.995 C4.824,22.995 4.950,22.968 5.063,22.916 L11.498,20.062 L17.943,22.921 C18.053,22.973 18.174,23.000 18.306,23.000 C18.510,23.000 18.712,22.930 18.871,22.804 C19.139,22.591 19.230,22.245 19.165,21.906 L17.779,14.823 L22.731,9.879 C22.970,9.640 23.058,9.292 22.961,8.972 C22.863,8.649 22.596,8.406 22.267,8.339 L15.164,6.916 L12.331,0.540 C12.185,0.212 11.857,-0.000 11.498,-0.000 L11.498,-0.000 Z" class="cls-1"/>
</svg>
